HIERARCHY
ROOT Hips
{
	OFFSET 0.000000 0.000000 0.000000
	CHANNELS 6 Xposition Yposition Zposition Zrotation Yrotation Xrotation 
	JOINT LHipJoint
	{
		OFFSET 0.000000 0.000000 0.000000
		CHANNELS 3 Zrotation Yrotation Xrotation
		JOINT LeftUpLeg
		{
			OFFSET 1.363060 -1.794630 0.839290
			CHANNELS 3 Zrotation Yrotation Xrotation
			JOINT LeftLeg
			{
				OFFSET 2.448110 -6.726130 0.000000
				CHANNELS 3 Zrotation Yrotation Xrotation
				JOINT LeftFoot
				{
					OFFSET 2.562200 -7.039590 0.000000
					CHANNELS 3 Zrotation Yrotation Xrotation
					JOINT LeftToeBase
					{
						OFFSET 0.157640 -0.433110 2.322550
						CHANNELS 3 Zrotation Yrotation Xrotation
						End Site
						{
							OFFSET 0.000000 0.000000 0.000000
						}
					}
				}
			}
		}
	}
	JOINT RHipJoint
	{
		OFFSET 0.000000 0.000000 0.000000
		CHANNELS 3 Zrotation Yrotation Xrotation
		JOINT RightUpLeg
		{
			OFFSET -1.305520 -1.794630 0.839290
			CHANNELS 3 Zrotation Yrotation Xrotation
			JOINT RightLeg
			{
				OFFSET -2.542530 -6.985550 0.000000
				CHANNELS 3 Zrotation Yrotation Xrotation
				JOINT RightFoot
				{
					OFFSET -2.568260 -7.056230 0.000000
					CHANNELS 3 Zrotation Yrotation Xrotation
					JOINT RightToeBase
					{
						OFFSET -0.164730 -0.452590 2.363150
						CHANNELS 3 Zrotation Yrotation Xrotation
						End Site
						{
							OFFSET 0.000000 0.000000 0.000000
						}
					}
				}
			}
		}
	}
	JOINT LowerBack
	{
		OFFSET 0.000000 0.000000 0.000000
		CHANNELS 3 Zrotation Yrotation Xrotation
		JOINT Spine
		{
			OFFSET 0.028270 2.035590 -0.193380
			CHANNELS 3 Zrotation Yrotation Xrotation
			JOINT Spine1
			{
				OFFSET 0.056720 2.048850 -0.042750
				CHANNELS 3 Zrotation Yrotation Xrotation
				JOINT Neck
				{
					OFFSET 0.000000 0.000000 0.000000
					CHANNELS 3 Zrotation Yrotation Xrotation
					JOINT Neck1
					{
						OFFSET -0.054170 1.746240 0.172020
						CHANNELS 3 Zrotation Yrotation Xrotation
						JOINT Head
						{
							OFFSET 0.104070 1.761360 -0.123970
							CHANNELS 3 Zrotation Yrotation Xrotation
							End Site
							{
								OFFSET 0.000000 0.000000 0.000000
							}
						}
					}
				}
				JOINT LeftShoulder
				{
					OFFSET 0.000000 0.000000 0.000000
					CHANNELS 3 Zrotation Yrotation Xrotation
					JOINT LeftArm
					{
						OFFSET 3.362410 1.200890 -0.311210
						CHANNELS 3 Zrotation Yrotation Xrotation
						JOINT LeftForeArm
						{
							OFFSET 4.983000 -0.000000 -0.000000
							CHANNELS 3 Zrotation Yrotation Xrotation
							JOINT LeftHand
							{
								OFFSET 3.483560 -0.000000 -0.000000
								CHANNELS 3 Zrotation Yrotation Xrotation
								JOINT LeftFingerBase
								{
									OFFSET 0.000000 0.000000 0.000000
									CHANNELS 3 Zrotation Yrotation Xrotation
									JOINT LeftHandIndex1
									{
										OFFSET 0.715260 -0.000000 -0.000000
										CHANNELS 3 Zrotation Yrotation Xrotation
										End Site
										{
											OFFSET 0.000000 0.000000 0.000000
										}
									}
								}
								JOINT LThumb
								{
									OFFSET 0.000000 0.000000 0.000000
									CHANNELS 3 Zrotation Yrotation Xrotation
									End Site
									{
										OFFSET 0.000000 0.000000 0.000000
									}
								}
							}
						}
					}
				}
				JOINT RightShoulder
				{
					OFFSET 0.000000 0.000000 0.000000
					CHANNELS 3 Zrotation Yrotation Xrotation
					JOINT RightArm
					{
						OFFSET -3.136600 1.374050 -0.404650
						CHANNELS 3 Zrotation Yrotation Xrotation
						JOINT RightForeArm
						{
							OFFSET -5.241900 -0.000000 -0.000000
							CHANNELS 3 Zrotation Yrotation Xrotation
							JOINT RightHand
							{
								OFFSET -3.444170 -0.000000 -0.000000
								CHANNELS 3 Zrotation Yrotation Xrotation
								JOINT RightFingerBase
								{
									OFFSET 0.000000 0.000000 0.000000
									CHANNELS 3 Zrotation Yrotation Xrotation
									JOINT RightHandIndex1
									{
										OFFSET -0.622530 -0.000000 -0.000000
										CHANNELS 3 Zrotation Yrotation Xrotation
										End Site
										{
											OFFSET 0.000000 0.000000 0.000000
										}
									}
								}
								JOINT RThumb
								{
									OFFSET 0.000000 0.000000 0.000000
									CHANNELS 3 Zrotation Yrotation Xrotation
									End Site
									{
										OFFSET 0.000000 0.000000 0.000000
									}
								}
							}
						}
					}
				}
			}
		}
	}
}
MOTION
Frames: 11
Frame Time: 0.033333
1.436454 17.014363 -8.615164 -2.541111 8.703763 10.712056 -16.103606 5.174083 4.064968 -6.259751 -4.319643 -23.272590 -3.517774 -18.699934 -1.118982 0.304989 6.948534 9.343458 -1.054342 0.025361 -26.341728 10.956253 -3.081681 6.941914 10.137614 -5.673312 -52.233049 2.983684 -6.390987 52.533348 -3.167856 -2.141075 -2.336275 0.294492 -0.077181 -47.324485 -0.910567 2.293426 -1.030431 -0.127243 -3.102422 -3.505237 -7.741647 -2.684585 2.635863 10.363538 -7.248356 -11.090690 -1.560074 -0.183197 -0.419298 -0.003915 0.061305 0.027509 4.233546 10.629930 7.204732 -39.621801 -33.430302 -16.431509 -6.134715 -48.771800 1.771034 11.537711 0.304599 0.007677 -0.139948 0.170708 -0.054486 -0.038677 -0.102496 -0.011993 -0.086697 0.114052 0.020498 13.831060 -8.781601 21.549237 59.491886 19.636625 -6.210256 -0.392454 41.404594 0.452887 -5.556742 3.454488 -0.163559 0.174231 -0.261483 -0.064367 0.010980 0.025079 -0.093111 0.011298 0.020324 -0.113118 
1.358876 17.003011 -7.891732 -1.429671 6.674055 10.672087 -14.368749 5.177050 3.618109 -9.215490 -5.983252 -20.245380 -0.902139 -14.784083 -0.014364 1.084103 4.958009 3.473426 -1.106413 0.026457 -27.152668 11.039605 -3.158256 8.186876 8.637865 -4.695792 -53.669319 2.674011 -6.906196 50.339906 -3.161858 -0.539224 -2.831954 0.752534 -0.152529 -46.988563 -1.735970 -0.835844 -2.950588 -1.048363 -2.409668 -3.147110 -7.213486 -1.642408 1.025034 9.993191 -7.308679 -8.912866 -1.770007 -0.186786 -0.230554 -0.004348 0.060378 0.037991 4.215693 8.740194 6.870780 -37.014748 -35.215868 -19.073617 -8.765052 -56.316979 3.876847 11.572391 0.077269 -0.026307 -0.070035 0.038347 -0.048530 -0.056462 -0.107313 -0.010518 -0.089826 0.115928 0.011254 15.819994 -8.263652 18.473853 60.291962 16.735289 -6.869990 -0.289987 41.141665 0.867414 -5.442214 3.306989 -0.142057 0.229415 -0.236374 -0.078783 0.008258 0.012871 -0.078422 0.010029 0.022555 -0.106838 
1.332491 17.080548 -7.215654 -1.532818 4.880946 11.032827 -13.705808 5.135503 3.449411 -10.410185 -5.139635 -18.577805 0.983448 -14.161259 0.815542 1.279653 4.724979 -0.019693 -1.200316 0.104649 -29.327590 10.216385 -2.716100 7.948736 9.971090 -3.677090 -52.094726 2.865717 -7.757951 45.875714 -3.038835 -1.455201 -1.710454 0.394095 -0.094821 -47.814739 -2.467835 0.560772 -6.400286 -1.950891 -1.360791 -1.896171 -6.524325 -3.431041 1.086287 10.753843 -7.850100 -8.908643 -1.956217 -0.203729 -0.462557 0.005891 0.054078 0.052899 5.355741 7.538575 4.733372 -40.685417 -34.279994 -14.914208 -9.058681 -62.506999 3.796232 12.223243 -0.484070 -0.114808 0.014197 0.096031 -0.028146 -0.063375 -0.107520 -0.011674 -0.095502 0.115288 0.003976 16.355360 -9.204850 18.074514 61.818149 16.417314 -5.151532 -0.587198 42.212946 -0.158473 -5.892304 3.456312 -0.197286 0.190291 -0.241245 -0.088892 0.001774 0.000984 -0.059366 0.006412 0.034479 -0.097964 
1.350979 17.203126 -6.564893 -2.320609 5.502550 9.426581 -13.965913 4.998140 3.047458 -9.166584 -1.067391 -14.470315 0.297656 -15.483688 -0.003883 1.194350 3.040043 -0.603067 -0.760271 0.087749 -31.135690 9.818271 -3.217568 7.445990 10.594925 -6.033241 -45.676582 4.225038 -6.159111 37.101650 -2.614578 -3.437744 -0.192328 -0.653379 0.034579 -47.185270 -0.008901 2.346630 -4.301939 -2.263649 -2.091327 -1.689919 -6.271181 -3.424158 1.813995 10.488858 -8.608507 -9.896141 -2.068450 -0.221008 -0.762477 0.024026 0.043269 0.050042 6.550370 7.607860 4.584653 -41.850493 -36.357863 -12.227389 -12.303305 -68.254218 7.285800 11.608137 -0.181169 -0.081366 0.024240 0.253976 -0.023325 -0.067560 -0.100512 -0.007913 -0.082992 0.111738 -0.002634 14.493116 -11.481437 15.126745 62.753408 14.887640 -2.730368 0.200989 45.789001 0.257276 -5.430565 2.715997 -0.147056 0.207894 -0.362425 -0.092818 0.012107 -0.021520 -0.054314 0.007181 0.037733 -0.091132 
1.370234 17.313004 -5.926438 -2.330606 5.844092 9.763234 -14.542800 3.650843 2.221804 -8.488707 2.569984 -13.088617 -0.221301 -16.977084 2.066422 1.521762 2.492824 -2.394651 -0.314494 0.018966 -32.855785 10.202560 -3.320205 5.418751 10.700794 -7.753436 -41.475228 5.151023 -4.364168 31.451212 -2.426814 -6.033929 2.254807 -1.485056 0.150846 -46.810251 2.393044 4.862973 -4.017338 -1.712726 -3.438227 -1.309684 -7.030005 -4.006956 2.575141 10.625778 -9.601465 -10.214996 -1.843387 -0.226128 -0.499965 0.036044 0.024071 0.055149 6.897730 8.235721 3.975755 -42.903444 -35.948170 -8.364411 -16.517208 -73.562331 12.357376 11.092085 -0.599844 -0.115858 -0.059212 0.256763 -0.013357 -0.065092 -0.092182 -0.007184 -0.064172 0.107311 -0.007300 12.119591 -15.735029 11.851796 64.832980 14.475788 -0.912593 0.301400 51.325282 -0.040762 -5.569907 2.648220 -0.160429 0.230041 -0.308435 -0.095109 0.018581 -0.051398 -0.058979 0.007495 0.042445 -0.083375 
1.367311 17.386031 -5.296035 -2.120750 4.087360 10.129149 -15.740233 2.812260 1.934049 -6.607893 4.765898 -11.764904 -1.167059 -14.815436 2.508274 1.621287 1.153695 -3.930347 0.104580 -0.064362 -33.596272 10.226947 -3.118921 3.337894 11.243514 -8.591620 -38.557996 5.450714 -2.979658 29.977981 -2.349404 -7.248896 0.755889 -1.973658 0.235918 -45.321656 2.370894 5.331021 -3.841659 -0.595155 -5.437455 -1.414054 -6.216888 -3.219457 3.887799 10.002759 -10.437532 -9.449712 -1.713510 -0.208567 -0.125333 0.046116 0.007353 0.053634 6.834790 9.248324 3.227195 -45.744087 -33.545749 -6.642987 -18.580372 -76.038281 14.960686 10.648250 -0.519098 -0.112465 -0.107209 0.341398 -0.005344 -0.067409 -0.087916 -0.007886 -0.049328 0.100421 -0.010571 11.069898 -15.767505 6.034927 66.444429 12.056222 -0.929609 -0.434859 57.772088 -0.455981 -5.969342 2.656369 -0.176245 0.179871 -0.268752 -0.097348 0.024236 -0.085110 -0.058919 0.002712 0.045154 -0.080688 
1.349199 17.435361 -4.668639 -1.723345 2.419972 10.003518 -16.342194 2.779325 3.381839 -5.679817 6.467263 -12.729734 -2.810414 -13.644396 4.988980 1.813761 0.404591 -5.970298 0.453790 -0.224884 -34.470567 9.102538 -2.181359 3.268862 11.810695 -8.483674 -38.575527 4.770845 -3.058635 31.375406 -1.885929 -6.354363 -0.765242 -1.898564 0.298395 -45.780860 2.629755 7.717853 -3.920766 -0.841812 -6.714608 -1.684467 -6.150032 -4.154244 4.467726 9.330102 -11.216685 -8.928690 -1.940496 -0.239725 0.186037 0.037063 0.007612 0.069185 5.967465 7.236140 2.917328 -46.479080 -29.461461 -5.043579 -12.120209 -77.512391 9.722255 11.490922 -1.159847 -0.204131 -0.157276 0.500152 -0.000116 -0.065623 -0.085942 -0.009354 -0.046022 0.101914 -0.017327 10.289472 -17.010390 1.688997 68.868067 10.253905 -2.124892 0.246287 61.440134 -0.211286 -7.795781 3.684715 -0.313513 0.166230 -0.345135 -0.096560 0.022247 -0.094364 -0.062268 -0.001525 0.060998 -0.058334 
1.317459 17.473723 -4.049227 -2.079073 1.182848 10.831401 -17.163966 2.401287 3.779325 -3.880071 6.966350 -14.625540 -4.160276 -12.316835 10.133396 2.508480 0.798309 -9.312210 0.595499 -0.351878 -34.088447 8.339068 -0.956327 2.686094 12.168821 -6.715325 -40.192222 3.564546 -4.221362 36.275834 -1.695357 -5.882938 -3.654161 -1.555682 0.292729 -45.985303 2.791111 5.696853 -4.840098 0.783048 -6.058033 -1.359103 -6.234763 -4.548624 3.254722 8.711712 -11.808111 -8.186731 -2.136353 -0.256120 0.372450 0.024489 0.015888 0.082032 5.461283 6.019010 1.910798 -47.708604 -27.322838 -4.259296 -9.691275 -78.544958 7.630721 12.348318 -1.957535 -0.305682 -0.225556 0.532783 0.007657 -0.062801 -0.076203 -0.007931 -0.041264 0.095232 -0.025578 9.857621 -17.431575 -0.664474 70.881340 10.313353 -3.946524 -0.059692 64.460044 -0.633201 -9.536821 4.442731 -0.443538 0.183718 -0.308743 -0.089786 0.014769 -0.092551 -0.064540 -0.010659 0.073003 -0.040419 
1.261335 17.490632 -3.447311 -2.002996 -0.076116 12.480855 -17.238699 1.981405 4.379210 -4.167457 8.344320 -19.295181 -5.606299 -11.707942 17.783979 3.024793 1.156290 -12.294159 0.816375 -0.429681 -33.233015 8.942948 -0.037861 3.163308 10.514863 -4.694269 -44.872550 2.379344 -6.406159 43.691395 -1.270991 -4.439936 -5.508446 -1.016609 0.273132 -48.064176 3.396978 6.344144 -5.402771 1.521559 -6.514014 -1.236743 -6.050011 -5.201172 2.737202 8.251662 -12.446609 -8.297756 -2.547539 -0.295910 0.350760 0.003416 0.022629 0.085897 5.457246 4.694940 0.589728 -47.910830 -26.344009 -5.714430 -7.964981 -79.873104 5.933064 13.363292 -2.409158 -0.399182 -0.307828 0.581599 0.009482 -0.053795 -0.071517 -0.009525 -0.045946 0.086088 -0.013850 8.407350 -16.092770 -3.327226 72.264784 10.099476 -6.895680 0.132624 67.413045 -0.163632 -11.597696 5.497894 -0.638567 0.233745 -0.371842 -0.068400 0.013523 -0.079940 -0.066255 -0.018110 0.081088 -0.036163 
1.179766 17.471232 -2.857300 -1.920036 -2.232843 14.556832 -16.871261 1.593825 5.262620 -5.601585 10.332426 -25.816319 -7.354087 -11.078022 26.685618 3.775791 2.061656 -14.538669 0.846105 -0.480515 -32.544138 8.876398 0.819192 4.035215 9.581364 -2.888175 -50.431155 1.309967 -6.867358 49.389296 -1.134639 -2.580591 -7.639852 -0.233746 0.239125 -51.006564 3.384406 7.791281 -5.143418 1.128286 -5.435028 -1.135340 -5.532381 -6.669112 1.863710 7.783627 -13.351990 -8.822023 -2.856329 -0.288049 0.002900 -0.015948 0.028026 0.086595 6.706307 3.739560 -0.283928 -48.617368 -26.564176 -8.656928 -6.929516 -81.168572 5.194154 14.138450 -3.036089 -0.506299 -0.383141 0.588766 0.009291 -0.045729 -0.056290 -0.009441 -0.051041 0.077944 -0.001954 8.011999 -16.797777 -4.569139 71.718706 10.405485 -10.121874 -0.772091 70.287340 -1.054301 -13.256339 6.540242 -0.863855 0.298970 -0.444509 -0.041410 0.013098 -0.061691 -0.064501 -0.034320 0.082146 -0.018716 
1.079893 17.417081 -2.260363 -1.970253 -4.390087 16.537186 -16.859611 0.511933 5.350420 -7.101496 11.742644 -30.461863 -5.999546 -8.846541 33.263949 3.550489 2.132456 -15.825579 0.779024 -0.426987 -32.587475 8.998583 2.283838 4.348963 6.432413 -0.477314 -54.367159 1.722633 -8.457328 50.017790 -0.913839 -0.435315 -9.364196 0.220349 0.222577 -54.316504 2.956742 6.586696 -3.801316 2.011124 -5.400246 -1.662459 -4.990817 -5.866728 1.588667 7.368159 -13.876653 -8.166164 -3.091360 -0.293517 -0.041274 -0.037950 0.037496 0.087836 7.285865 3.957282 -0.726496 -49.634065 -27.502549 -12.458973 -9.035778 -80.516966 7.241565 14.389096 -2.815971 -0.498578 -0.379526 0.600615 0.002091 -0.040295 -0.046504 -0.015949 -0.051230 0.071357 0.014303 7.620978 -16.250458 -5.272247 69.688032 8.947712 -13.515857 2.400267 73.289202 1.475245 -14.014598 7.221219 -1.006188 0.356725 -0.490334 -0.024154 0.022787 -0.048845 -0.074767 -0.037937 0.076747 -0.024608 
